#!OML:ASF E:/inclinewalkrobotboard/Project1/Captureday1/Session1/subject1.ASF
:FULLY-SPECIFIED
:DEGREES
113
root 0 0 0 15.928536998427619 41.0065339731745 -0.2690366878676844
lowerback -10.909660678402037 -4.4571926023756046 -4.698201240860537
upperback -11.705398043981486 -5.546540596856145 8.773519567624081
thorax -5.42251761505565 -2.0654849146309715 12.121190953589718
lowerneck -3.1374650845889773 -9.720014199665783 -8.341755477704123
upperneck 32.71775298494568 -12.216380368314095 0.2031754934345238
head 11.889274471659839 -6.316638368186022 -0.1331739901653035
rclavicle -5.2250867249206134E-15 3.626700712536463E-15
rhumerus 160.39558223237788 5.160600839359091 -196.16539763890685
rradius 13.52810556682282
rwrist 86.28929067144726
rhand -16.467611420615512 7.160126358172382
rfingers 7.125020000000014
rthumb 9.686308355597419 -22.705541859292502
lclavicle 1.7706214928636498E-15 -2.8974474700175753E-15
lhumerus 82.62110742050444 34.58534898947052 15.726158527863358
lradius 42.72917425772145
lwrist -20.832641188502805
lhand -12.14237223605629 14.639520118429008
lfingers 7.125019999999968
lthumb 13.878199920724468 44.20352380178009
rfemur 157.8747221948832 -213.11709125650538 -185.53113127257478
rtibia 60.56420013436694
rfoot -56.986830893533956 -22.788999235040606
rtoes 61.234768422294735
lfemur -88.02956241046024 21.924937460391092 -52.88057184675574
ltibia 75.2496642020465
lfoot -17.9869348852301 33.508514862769104
ltoes 11.011144868752456
114
root 0 0 0 15.176148267542281 42.245676869357794 -0.04864530127800215
lowerback -10.508709765564404 -4.5063000409331035 -4.660881913662613
upperback -11.522455882478887 -5.596557361907023 8.804079167203962
thorax -5.442351193598478 -2.086120903321441 12.125073582329886
lowerneck -3.0609503686213904 -9.767271153007728 -8.349693556412054
upperneck 32.765712915657716 -12.226319143958214 0.0311641331853596
head 11.893001172400137 -6.340563127593793 -0.19319403812829172
rclavicle -5.1876894004146756E-15 3.923561540015199E-15
rhumerus 161.03161922155167 5.311198517064671 -195.7976720065736
rradius 14.237702070829801
rwrist 85.8722284445692
rhand -16.646008584615558 7.3465131660116025
rfingers 7.1250200000000135
rthumb 9.516402408527227 -22.53269145834808
lclavicle 1.8804530386627694E-15 -2.7922057818445533E-15
lhumerus 84.22321094888038 34.39129151932603 16.163332049782714
lradius 43.20699629036927
lwrist -20.194296063632486
lhand -12.244771966553634 14.341418476639866
lfingers 7.12501999999997
lthumb 13.779852903511703 43.895376111648694
rfemur 156.77355167341327 -212.14909758681654 -184.74376481556868
rtibia 59.15745707973413
rfoot -60.086658791683334 -21.627285672745806
rtoes 61.10200927073227
lfemur -87.89092048540132 22.10333534325855 -53.43638895157419
ltibia 75.19446641840732
lfoot -14.586208653510685 33.08112883963284
ltoes 9.477929968277301
115
root 0 0 0 14.848827741378763 42.585890057653515 0.08650839093472129
lowerback -10.345974333139043 -4.524516186952983 -4.66732904926975
upperback -11.445943411795685 -5.61524029642455 8.800435609243968
thorax -5.452383355497393 -2.0908489660668907 12.121681014314817
lowerneck -3.039890102380795 -9.774172564800113 -8.338714645597621
upperneck 32.786633611767634 -12.218714875419174 -0.029702952386796877
head 11.895449179115923 -6.3431292999504665 -0.2149054822895633
rclavicle -5.10693029848908E-15 4.229483771847193E-15
rhumerus 160.9970090512533 5.669339447046259 -195.94937356394382
rradius 14.648953530668706
rwrist 85.50465997256677
rhand -16.77007905321628 7.528214358199127
rfingers 7.1250200000000135
rthumb 9.398845972170824 -22.35223031979187
lclavicle 2.1943545361827437E-15 -2.592048873323047E-15
lhumerus 84.57501745994772 34.14949440424147 16.273412078357303
lradius 43.675523373170165
lwrist -19.90398431590659
lhand -12.125859488971468 14.172385128274607
lfingers 7.125019999999972
lthumb 13.894697232825862 43.694523736918235
rfemur 156.4257308274294 -211.82878090813384 -184.42738800104553
rtibia 58.36096261083773
rfoot -62.16744183914136 -20.67724630117071
rtoes 60.73212359395039
lfemur -88.00079583394498 22.186551644390104 -53.77921236489319
ltibia 75.1491714063668
lfoot -12.56447164551557 32.9223144932852
ltoes 8.719017255580964
116
root 0 0 0 14.589326330335535 42.717322440055625 0.2167387576648192
lowerback -10.225712730855456 -4.536795554559905 -4.685564083199581
upperback -11.38728497909037 -5.628025132963023 8.786928921506409
thorax -5.460598445266241 -2.092040335173472 12.115188258356952
lowerneck -3.0331537864725693 -9.771871343199063 -8.322876236837516
upperneck 32.79769665517158 -12.20653750867532 -0.06566971603297578
head 11.89630987792428 -6.340729497367477 -0.22811913575046483
rclavicle -4.980584521710762E-15 4.501146821917098E-15
rhumerus 160.7836112765119 6.059512654640002 -196.21652983374716
rradius 14.954309190532136
rwrist 85.18080044090854
rhand -16.869242148875816 7.6956153186476595
rfingers 7.125020000000013
rthumb 9.305622492871354 -22.182437680723083
lclavicle 2.5535802114679332E-15 -2.3739471069223526E-15
lhumerus 84.70344533432346 33.96202353551345 16.322148848680865
lradius 44.081099878108006
lwrist -19.713761711681038
lhand -11.971050062224721 14.049132611540564
lfingers 7.125019999999973
lthumb 14.043984111953769 43.539707311809465
rfemur 156.1235047042262 -211.5431531320657 -184.16495322283498
rtibia 57.49906304587317
rfoot -64.318388310281 -19.748997062774492
rtoes 60.36043576572108
lfemur -88.16479153231268 22.255826651644924 -54.076452511618186
ltibia 75.09015792465073
lfoot -10.781447010520166 32.81945455040516
ltoes 8.12092383500341
117
root 0 0 0 14.373386692171078 42.72690763870578 0.33823269979743564
lowerback -10.13259325107077 -4.5459703091206585 -4.70781898902764
upperback -11.340259795036447 -5.637835254933109 8.769263293993772
thorax -5.467419846626656 -2.0917555049583587 12.107047227090327
lowerneck -3.034939085668272 -9.76525773034877 -8.306268670901218
upperneck 32.80141239449134 -12.193150965595217 -0.0850536475114505
head 11.895965375564849 -6.336087572021772 -0.23566229356320245
rclavicle -4.851698105808686E-15 4.7282871076678604E-15
rhumerus 160.4439465217859 6.412443508091162 -196.49846001972597
rradius 15.141492423091952
rwrist 84.96434827049504
rhand -16.940758193826575 7.8365320404097405
rfingers 7.125020000000013
rthumb 9.238808816758231 -22.037251467617352
lclavicle 2.9108050158286066E-15 -2.1555404183248226E-15
lhumerus 84.69559003664706 33.829596254737915 16.31753740533203
lradius 44.362285237786324
lwrist -19.61271192277855
lhand -11.832535289803362 13.98457028832662
lfingers 7.1250199999999735
lthumb 14.177467834598634 43.44999644243283
rfemur 155.80686570038677 -211.23337702334715 -183.90295714416442
rtibia 56.56270210801679
rfoot -66.51931345096273 -18.807663753097703
rtoes 60.019274165212394
lfemur -88.3505107273918 22.311414065386067 -54.32495115650278
ltibia 75.02200183349842
lfoot -9.25213499215302 32.75570711672016
ltoes 7.649494559097219
